<svg width="24" height="24" viewBox="0 0 24 24" fill="none" xmlns="http://www.w3.org/2000/svg">
<mask id="mask0_6152_6051" style="mask-type:alpha" maskUnits="userSpaceOnUse" x="0" y="0" width="24" height="24">
<path d="M2.86197e-07 24L0 2.86197e-07L24 0L24 24L2.86197e-07 24Z" fill="#222222"/>
</mask>
<g mask="url(#mask0_6152_6051)">
<path fill-rule="evenodd" clip-rule="evenodd" d="M4.79961 10.3579C4.79961 7.28836 7.28796 4.80001 10.3575 4.80001C13.427 4.80001 15.9154 7.28836 15.9154 10.3579C15.9154 13.4274 13.427 15.9158 10.3575 15.9158C7.28796 15.9158 4.79961 13.4274 4.79961 10.3579ZM10.3575 3.60001C6.62522 3.60001 3.59961 6.62562 3.59961 10.3579C3.59961 14.0902 6.62522 17.1158 10.3575 17.1158C14.0898 17.1158 17.1154 14.0902 17.1154 10.3579C17.1154 6.62562 14.0898 3.60001 10.3575 3.60001Z" fill="#222222"/>
<path fill-rule="evenodd" clip-rule="evenodd" d="M20.2241 19.3757L15.2977 14.4494L14.4492 15.298L19.3755 20.2243L20.2241 19.3757Z" fill="#222222"/>
</g>
</svg>
