<svg xmlns="http://www.w3.org/2000/svg" width="31" height="31" fill="none" viewBox="0 0 31 31"><path fill="#454545" d="M15.5 5.425C9.939 5.425 5.425 9.94 5.425 15.5S9.939 25.575 15.5 25.575 25.575 21.061 25.575 15.5 21.061 5.425 15.5 5.425m0 18.206a8.18 8.18 0 0 1-8.18-8.181c0-4.514 3.656-8.191 8.18-8.191a8.18 8.18 0 1 1 0 16.362z"/><path fill="#454545" d="M13.258 10.215a.864.864 0 0 1 1.14 0l5.143 4.615c.344.31.344.83 0 1.139l-5.143 4.615a.864.864 0 0 1-1.14 0 .757.757 0 0 1 0-1.139l4.508-4.046-4.508-4.045a.757.757 0 0 1 0-1.14"/></svg>