<svg width="24" height="24" viewBox="0 0 24 24" fill="none" xmlns="http://www.w3.org/2000/svg">
<mask id="mask0_5228_3425" style="mask-type:alpha" maskUnits="userSpaceOnUse" x="0" y="0" width="24" height="24">
<path d="M24 24L24 0L0 2.86197e-07L2.86197e-07 24L24 24Z" fill="#222222"/>
</mask>
<g mask="url(#mask0_5228_3425)">
<path fill-rule="evenodd" clip-rule="evenodd" d="M19.1984 10.3579C19.1984 7.28833 16.7101 4.79998 13.6405 4.79998C10.571 4.79998 8.08265 7.28833 8.08265 10.3579C8.08265 13.4274 10.571 15.9158 13.6405 15.9158C16.7101 15.9158 19.1984 13.4274 19.1984 10.3579ZM13.6405 3.59998C17.3728 3.59998 20.3984 6.62559 20.3984 10.3579C20.3984 14.0902 17.3728 17.1158 13.6405 17.1158C9.90826 17.1158 6.88265 14.0902 6.88265 10.3579C6.88265 6.62559 9.90826 3.59998 13.6405 3.59998Z" fill="#222222"/>
<path fill-rule="evenodd" clip-rule="evenodd" d="M3.77594 19.3758L8.70225 14.4495L9.55078 15.298L4.62447 20.2243L3.77594 19.3758Z" fill="#222222"/>
</g>
</svg>
