<svg width="16" height="18" viewBox="0 0 16 18" fill="none" xmlns="http://www.w3.org/2000/svg">
<path fill-rule="evenodd" clip-rule="evenodd" d="M13.9992 8.05661C13.9992 4.60641 11.1802 1.79998 7.69922 1.79998C4.2182 1.79998 1.39922 4.60641 1.39922 8.05661C1.39922 9.52776 1.9094 10.879 2.76571 11.9476L1.82929 12.698C0.808804 11.4245 0.19922 9.81071 0.19922 8.05661C0.19922 3.93652 3.56264 0.599976 7.69922 0.599976C11.8358 0.599976 15.1992 3.93652 15.1992 8.05661C15.1992 12.1767 11.8358 15.5132 7.69922 15.5132C7.43914 15.5132 7.1787 15.5004 6.92191 15.4748L7.04132 14.2807C7.25768 14.3024 7.47826 14.3132 7.69922 14.3132C11.1802 14.3132 13.9992 11.5068 13.9992 8.05661Z" fill="#222222"/>
<path fill-rule="evenodd" clip-rule="evenodd" d="M7.51849 14.9129L9.16016 13.2806L8.31406 12.4296L5.81573 14.9137L8.31447 17.3934L9.15975 16.5416L7.51849 14.9129Z" fill="#222222"/>
</svg>
