<svg width="14" height="14" viewBox="0 0 14 14" fill="none" xmlns="http://www.w3.org/2000/svg">
<g clip-path="url(#clip0_13209_22854)">
<path d="M8.57171 13.8572C8.45742 13.8572 8.31456 13.8286 8.22885 13.7429L3.08599 9.68575C2.94314 9.57146 2.85742 9.40003 2.85742 9.22861V4.77146C2.85742 4.60004 2.94314 4.42861 3.08599 4.31432L8.22885 0.257179C8.40028 0.114322 8.62885 0.0857503 8.82885 0.200036C9.00028 0.28575 9.14314 0.48575 9.14314 0.714322V13.2857C9.14314 13.5143 9.02885 13.7143 8.82885 13.8C8.74314 13.8286 8.65742 13.8572 8.57171 13.8572ZM4.00028 8.94289L8.00028 12.1143V1.88575L4.00028 5.05718V8.94289Z" fill="#454545"/>
<path d="M3.42877 9.80007H0.771624C0.457338 9.80007 0.200195 9.54293 0.200195 9.22864V4.7715C0.200195 4.45722 0.457338 4.20007 0.771624 4.20007H3.42877C3.74305 4.20007 4.0002 4.45722 4.0002 4.7715V9.22864C4.0002 9.54293 3.74305 9.80007 3.42877 9.80007ZM1.34305 8.65722H2.85734V5.34293H1.34305V8.65722Z" fill="#454545"/>
<path d="M11.7717 12.2858C11.6575 12.2858 11.5432 12.2572 11.4289 12.1715C11.1717 11.9715 11.1146 11.6286 11.3146 11.3715C13.1146 8.94292 13.1146 5.02864 11.3146 2.60007C11.1432 2.3715 11.2003 2.00007 11.4289 1.82864C11.686 1.62864 12.0289 1.68578 12.2289 1.94293C14.3146 4.74293 14.3146 9.28578 12.2289 12.0858C12.1146 12.2286 11.9432 12.2858 11.7717 12.2858Z" fill="#454545"/>
<path d="M10.4007 10.4287C10.2864 10.4287 10.1721 10.4001 10.0578 10.3144C9.80065 10.1144 9.74351 9.77153 9.94351 9.51439C10.9721 8.14296 10.9721 5.85725 9.94351 4.48582C9.74351 4.22868 9.80065 3.88582 10.0578 3.68582C10.3149 3.48582 10.6578 3.54296 10.8578 3.8001C12.2007 5.6001 12.2007 8.4001 10.8578 10.2001C10.7435 10.343 10.5721 10.4287 10.4007 10.4287Z" fill="#454545"/>
</g>
<defs>
<clipPath id="clip0_13209_22854">
<rect width="14" height="14" fill="white"/>
</clipPath>
</defs>
</svg>
