<svg width="29" height="29" viewBox="0 0 29 29" fill="none" xmlns="http://www.w3.org/2000/svg">
<path d="M14.498 1.5249C21.6638 1.5249 27.4734 7.3338 27.4736 14.4995C27.4736 21.6654 21.6639 27.4751 14.498 27.4751C7.33233 27.4749 1.52344 21.6653 1.52344 14.4995C1.52365 7.33393 7.33246 1.52511 14.498 1.5249Z" stroke="#222222" stroke-width="2"/>
<path d="M14.5008 9.25937C15.4656 9.25937 16.2477 8.47727 16.2477 7.5125C16.2477 6.54773 15.4656 5.76562 14.5008 5.76562C13.536 5.76562 12.7539 6.54773 12.7539 7.5125C12.7539 8.47727 13.536 9.25937 14.5008 9.25937Z" fill="#222222"/>
<path d="M15.8966 12.0544H13.1016V23.2344H15.8966V12.0544Z" fill="#222222"/>
</svg>
