<svg xmlns="http://www.w3.org/2000/svg" width="17.333" height="14.4"><path fill="#222" fill-rule="evenodd" d="M16.733 8.067a.6.6 0 0 0-.6.6V13.2H1.2V8.667a.6.6 0 0 0-1.2 0V13.8a.6.6 0 0 0 .6.6h16.133a.6.6 0 0 0 .6-.6V8.667a.6.6 0 0 0-.6-.6"/><path fill="#222" fill-rule="evenodd" d="M8.292 10.6a.686.686 0 0 0 .075.042.464.464 0 0 0 .262.083c.013 0 .024.008.037.008s.015-.005.024-.005a.623.623 0 0 0 .19-.038.809.809 0 0 0 .076-.042.556.556 0 0 0 .086-.048l3.666-2.932a.6.6 0 1 0-.75-.937L9.266 8.884V.6a.6.6 0 1 0-1.2 0v8.284L5.374 6.731a.6.6 0 0 0-.843.094.6.6 0 0 0 .095.843Z"/></svg>