<svg width="29" height="29" viewBox="0 0 29 29" fill="none" xmlns="http://www.w3.org/2000/svg">
<path d="M14.4995 1.52502C21.6653 1.52502 27.4749 7.33392 27.4751 14.4996C27.4751 21.6655 21.6654 27.4752 14.4995 27.4752C7.3338 27.475 1.5249 21.6654 1.5249 14.4996C1.52511 7.33405 7.33393 1.52524 14.4995 1.52502Z" stroke="#222222" stroke-width="2"/>
<path d="M14.5 9.25937C15.4648 9.25937 16.2469 8.47727 16.2469 7.5125C16.2469 6.54773 15.4648 5.76562 14.5 5.76562C13.5353 5.76562 12.7532 6.54773 12.7532 7.5125C12.7532 8.47727 13.5353 9.25937 14.5 9.25937Z" fill="#222222"/>
<path d="M15.8975 12.0544H13.1025V23.2344H15.8975V12.0544Z" fill="#222222"/>
</svg>
