<svg width="21" height="21" viewBox="0 0 21 21" fill="none" xmlns="http://www.w3.org/2000/svg">
<mask id="mask0_5238_4413" style="mask-type:alpha" maskUnits="userSpaceOnUse" x="0" y="0" width="21" height="21">
<path d="M20.5 0.5H0.5V20.5H20.5V0.5Z" fill="#222222"/>
</mask>
<g mask="url(#mask0_5238_4413)">
<path fill-rule="evenodd" clip-rule="evenodd" d="M5.64645 4.14645C5.84171 3.95118 6.15829 3.95118 6.35355 4.14645L12.3536 10.1464C12.5488 10.3417 12.5488 10.6583 12.3536 10.8536L6.35355 16.8536C6.15829 17.0488 5.84171 17.0488 5.64645 16.8536C5.45118 16.6583 5.45118 16.3417 5.64645 16.1464L11.2929 10.5L5.64645 4.85355C5.45118 4.65829 5.45118 4.34171 5.64645 4.14645Z" fill="#999999"/>
<path fill-rule="evenodd" clip-rule="evenodd" d="M9.14645 4.14645C9.34171 3.95118 9.65829 3.95118 9.85355 4.14645L15.8536 10.1464C16.0488 10.3417 16.0488 10.6583 15.8536 10.8536L9.85355 16.8536C9.65829 17.0488 9.34171 17.0488 9.14645 16.8536C8.95118 16.6583 8.95118 16.3417 9.14645 16.1464L14.7929 10.5L9.14645 4.85355C8.95118 4.65829 8.95118 4.34171 9.14645 4.14645Z" fill="#999999"/>
</g>
</svg>
