<svg width="20" height="21" viewBox="0 0 20 21" fill="none" xmlns="http://www.w3.org/2000/svg">
<path fill-rule="evenodd" clip-rule="evenodd" d="M19.5996 20.2C19.5996 19.7582 19.2414 19.4 18.7996 19.4H1.52393C1.0821 19.4 0.72393 19.7582 0.72393 20.2C0.72393 20.6419 1.0821 21 1.52393 21H18.7996C19.2414 21 19.5996 20.6419 19.5996 20.2Z" fill="#999999"/>
<path fill-rule="evenodd" clip-rule="evenodd" d="M17.8419 0.83429C17.5294 0.521871 17.0229 0.521871 16.7105 0.83429L2.48346 15.0613C2.17104 15.3737 2.17104 15.8803 2.48346 16.1927C2.79588 16.5051 3.30241 16.5051 3.61483 16.1927L17.8419 1.96566C18.1543 1.65324 18.1543 1.14671 17.8419 0.83429Z" fill="#999999"/>
<path fill-rule="evenodd" clip-rule="evenodd" d="M18.0762 1.39998C18.0762 0.958148 17.718 0.599976 17.2762 0.599976H6.83961C6.39778 0.599976 6.03961 0.958148 6.03961 1.39998C6.03961 1.8418 6.39778 2.19998 6.83961 2.19998H16.4762V11.8365C16.4762 12.2784 16.8343 12.6365 17.2762 12.6365C17.718 12.6365 18.0762 12.2784 18.0762 11.8365V1.39998Z" fill="#999999"/>
</svg>
