<svg xmlns="http://www.w3.org/2000/svg" width="16.8" height="16.8"><g fill="#222" fill-rule="evenodd"><path d="M-.002 5.475a.6.6 0 0 1 .6-.6h15.6a.6.6 0 0 1 .6.6V16.2a.6.6 0 0 1-.6.6H.598a.6.6 0 0 1-.6-.6Zm1.2.6V15.6h14.4V6.075Z"/><path d="M-.002 2.55a.6.6 0 0 1 .6-.6h15.6a.6.6 0 0 1 .6.6v2.925a.6.6 0 0 1-.6.6H.598a.6.6 0 0 1-.6-.6Zm1.2.6v1.725h14.4V3.15Z"/><path d="M4.498 0a.6.6 0 0 1 .6.6v1.95a.6.6 0 0 1-1.2 0V.6a.6.6 0 0 1 .6-.6Zm7.8 0a.6.6 0 0 1 .6.6v1.95a.6.6 0 1 1-1.2 0V.6a.6.6 0 0 1 .6-.6Z"/></g></svg>