<svg xmlns="http://www.w3.org/2000/svg" id="ico_x5F_last" version="1.1" viewBox="0 0 24 25"><defs><style>.st0{fill:#999;fill-rule:evenodd}</style></defs><path id="pass04" d="M5.2 4.7c.2-.2.6-.2.8 0l6.9 7.4c.2.2.2.6 0 .9L6 20.4c-.2.2-.6.2-.8 0-.2-.2-.2-.6 0-.9l6.5-6.9-6.5-6.9c-.2-.2-.2-.6 0-.9Z" class="st0"/><path id="pass03" d="M11.2 4.7c.2-.2.6-.2.8 0l6.9 7.4c.2.2.2.6 0 .9L12 20.4c-.2.2-.6.2-.8 0-.2-.2-.2-.6 0-.9l6.5-6.9-6.5-6.9c-.2-.2-.2-.6 0-.9Z" class="st0"/><path id="pass02" d="M5.2 4.7c.2-.2.6-.2.8 0l6.9 7.4c.2.2.2.6 0 .9L6 20.4c-.2.2-.6.2-.8 0-.2-.2-.2-.6 0-.9l6.5-6.9-6.5-6.9c-.2-.2-.2-.6 0-.9Z" class="st0"/><path id="pass01" d="M11.2 4.7c.2-.2.6-.2.8 0l6.9 7.4c.2.2.2.6 0 .9L12 20.4c-.2.2-.6.2-.8 0-.2-.2-.2-.6 0-.9l6.5-6.9-6.5-6.9c-.2-.2-.2-.6 0-.9Z" class="st0"/></svg>