<svg width="137" height="36" viewBox="0 0 137 36" fill="none" xmlns="http://www.w3.org/2000/svg">
<mask id="mask0_10362_42095" style="mask-type:alpha" maskUnits="userSpaceOnUse" x="0" y="0" width="137" height="36">
<rect width="137" height="36" fill="#D9D9D9"/>
</mask>
<g mask="url(#mask0_10362_42095)">
<mask id="mask1_10362_42095" style="mask-type:luminance" maskUnits="userSpaceOnUse" x="0" y="11" width="18" height="24">
<path d="M13.236 27.1755C10.2141 27.1755 7.76632 24.7243 7.76632 21.698C7.76632 18.6718 8.31027 18.9744 9.21684 17.9758C8.28005 16.2508 7.7361 14.2535 7.7361 12.1654C7.7361 10.0773 7.7361 11.5299 7.76632 11.197C3.23345 12.8615 0 17.189 0 22.3033C0 27.4176 5.28835 34.1358 11.8157 34.1358C18.343 34.1358 15.8651 33.5911 17.5573 32.653V25.0269C16.5601 26.3282 14.9887 27.1755 13.2058 27.1755" fill="white"/>
</mask>
<g mask="url(#mask1_10362_42095)">
<mask id="mask2_10362_42095" style="mask-type:luminance" maskUnits="userSpaceOnUse" x="-4" y="7" width="26" height="30">
<path d="M17.0197 7.84928L-3.90161 11.5435L0.543021 36.7863L21.4643 33.092L17.0197 7.84928Z" fill="white"/>
</mask>
<g mask="url(#mask2_10362_42095)">
<path d="M17.0197 7.84928L-3.90161 11.5435L0.543021 36.7863L21.4643 33.092L17.0197 7.84928Z" fill="url(#paint0_linear_10362_42095)"/>
</g>
</g>
<mask id="mask3_10362_42095" style="mask-type:luminance" maskUnits="userSpaceOnUse" x="7" y="0" width="26" height="18">
<path d="M13.236 16.2508C13.8404 16.2508 14.4448 16.3416 14.9887 16.5535C14.3843 15.6153 14.0217 14.4956 14.0217 13.3154C14.0217 10.0471 16.6508 7.41426 19.9144 7.41426C23.1781 7.41426 24.3264 8.80632 25.2632 10.8339C26.1396 10.6221 27.0461 10.501 27.9829 10.501C29.4032 10.501 30.7631 10.7431 32.0323 11.197C31.5488 4.93275 26.2907 0 19.9144 0C13.5382 0 7.76633 5.44721 7.76633 12.1654C7.76633 18.8837 8.31027 16.2508 9.24706 17.9758C10.2443 16.8864 11.6646 16.2206 13.2662 16.2206" fill="white"/>
</mask>
<g mask="url(#mask3_10362_42095)">
<mask id="mask4_10362_42095" style="mask-type:luminance" maskUnits="userSpaceOnUse" x="2" y="-8" width="36" height="35">
<path d="M29.3093 -7.5683L2.07681 2.35764L10.6863 26.0459L37.9188 16.1199L29.3093 -7.5683Z" fill="white"/>
</mask>
<g mask="url(#mask4_10362_42095)">
<path d="M29.3093 -7.5683L2.07681 2.35764L10.6863 26.0459L37.9188 16.1199L29.3093 -7.5683Z" fill="url(#paint1_linear_10362_42095)"/>
</g>
</g>
<mask id="mask5_10362_42095" style="mask-type:luminance" maskUnits="userSpaceOnUse" x="22" y="10" width="18" height="25">
<path d="M28.0132 10.501C27.0764 10.501 26.1698 10.6221 25.2934 10.8339C25.6258 11.5905 25.8374 12.4075 25.8374 13.2851C25.8374 14.1627 25.4747 15.5851 24.8704 16.5232C25.4143 16.3416 26.0187 16.2206 26.6231 16.2206C29.645 16.2206 32.0927 18.6718 32.0927 21.6981C32.0927 24.7243 29.645 27.1755 26.6231 27.1755C23.6012 27.1755 23.2687 26.3282 22.2715 25.0269V32.653C23.9638 33.5911 25.928 34.1358 28.0132 34.1358C34.5405 34.1358 39.8288 28.8399 39.8288 22.3033C39.8288 15.7666 34.5405 10.4707 28.0132 10.4707" fill="white"/>
</mask>
<g mask="url(#mask5_10362_42095)">
<mask id="mask6_10362_42095" style="mask-type:luminance" maskUnits="userSpaceOnUse" x="18" y="7" width="26" height="31">
<path d="M22.617 7.77992L18.0464 33.7379L39.0273 37.4427L43.5979 11.4847L22.617 7.77992Z" fill="white"/>
</mask>
<g mask="url(#mask6_10362_42095)">
<path d="M22.617 7.77992L18.0464 33.7379L39.0273 37.4427L43.5979 11.4847L22.617 7.77992Z" fill="url(#paint2_linear_10362_42095)"/>
</g>
</g>
<path d="M86.5779 11.5602C86.5779 13.1641 86.4268 14.5259 86.1246 15.7061C85.8224 16.8863 85.3691 17.8547 84.7647 18.6718C84.1603 19.4889 83.4048 20.1244 82.4983 20.6389C81.5917 21.1231 80.534 21.4862 79.3253 21.7283V20.1547C80.4434 19.9126 81.3499 19.4889 82.0148 18.8837C82.6796 18.2784 83.2235 17.5219 83.5559 16.6442H79.4461V15.1009H83.979C84.0697 14.6772 84.1301 14.2535 84.1603 13.7996C84.1905 13.3457 84.2208 12.8917 84.2208 12.3773H79.4461V10.8036H85.7619C85.9735 10.8036 86.1548 10.8642 86.3361 11.0155C86.4872 11.1668 86.5779 11.3484 86.5779 11.5602ZM91.4734 16.7048H90.2344V25.39H87.9982V10.1076H90.2344V15.0403H91.4734V10.1076H93.7096V25.39H91.4734V16.7048Z" fill="#00326D"/>
<path d="M109.091 25.4203H106.734V21.0928C106.402 21.2138 106.009 21.3046 105.586 21.3652C105.163 21.3954 104.679 21.4257 104.135 21.4257H95.009V19.8823H96.6408V12.4378H95.0997V10.8642H105.072V12.4378H103.531V19.8823H104.316C105.253 19.8823 106.039 19.7613 106.704 19.5494V10.1379H109.061V25.4203H109.091ZM101.204 19.852V12.4075H98.9979V19.852H101.204Z" fill="#00326D"/>
<path d="M124.654 13.1641H127.072V14.7982H124.654V18.0363H122.297V17.1284C121.874 17.31 121.421 17.4311 120.907 17.5219C120.393 17.6126 119.819 17.6429 119.154 17.6429H113.08C112.717 17.6429 112.385 17.4916 112.113 17.2192C111.841 16.9469 111.69 16.614 111.69 16.2508V10.4707H119.94V11.9233H114.077V13.1943H119.789V14.6772H114.077V16.1298H119.154C119.819 16.1298 120.393 16.0995 120.907 16.039C121.421 15.9785 121.874 15.8574 122.297 15.7364V10.1076H124.654V13.1641ZM115.618 23.9375H124.775V25.4203H114.591C114.198 25.4203 113.866 25.2993 113.594 25.0269C113.322 24.7545 113.201 24.4217 113.201 24.0585V21.3349H122.206V20.306H113.201V18.7929H123.868C124.08 18.7929 124.261 18.8534 124.412 19.0047C124.563 19.156 124.654 19.3376 124.654 19.5494V22.7875H115.618V23.9677V23.9375Z" fill="#00326D"/>
<path d="M70.6826 19.5192H74.2182V21.5165C73.1303 22.5151 71.7402 22.9691 70.3199 22.9691C67.6002 22.9691 65.4547 21.2139 65.4547 17.6126C65.4547 14.0114 66.7843 12.2865 70.3199 12.2865C73.8556 12.2865 73.5836 13.0128 74.0973 14.9798H76.6962C76.4242 12.1049 74.1276 9.8655 70.471 9.8655C66.8145 9.8655 62.6443 12.7707 62.6443 17.764C62.6443 22.7572 66.0893 25.5111 70.4408 25.5111C74.7924 25.5111 75.0039 24.6335 76.7868 22.5757V17.0982H70.6221V19.5494L70.6826 19.5192Z" fill="#00326D"/>
<path d="M53.5181 21.3652L49.3781 10.1076H45.9633V25.2387H48.5924V14.9798L52.3093 25.0572H54.7571L58.474 14.9798V25.2387H61.0729V10.1076H57.6581L53.5181 21.3652Z" fill="#00326D"/>
</g>
<defs>
<linearGradient id="paint0_linear_10362_42095" x1="7.2154" y1="34.3543" x2="3.14258" y2="11.2892" gradientUnits="userSpaceOnUse">
<stop stop-color="#54C3F1"/>
<stop offset="0.1" stop-color="#54C3F1"/>
<stop offset="0.3" stop-color="#4BBAEB"/>
<stop offset="0.5" stop-color="#36A2DC"/>
<stop offset="0.9" stop-color="#127CC3"/>
<stop offset="1" stop-color="#0068B7"/>
</linearGradient>
<linearGradient id="paint1_linear_10362_42095" x1="6.51447" y1="13.9923" x2="29.3814" y2="5.68125" gradientUnits="userSpaceOnUse">
<stop stop-color="#54C3F1"/>
<stop offset="0.1" stop-color="#54C3F1"/>
<stop offset="0.3" stop-color="#4BBAEB"/>
<stop offset="0.5" stop-color="#36A2DC"/>
<stop offset="0.9" stop-color="#127CC3"/>
<stop offset="1" stop-color="#0068B7"/>
</linearGradient>
<linearGradient id="paint2_linear_10362_42095" x1="30.7301" y1="10.1159" x2="26.6678" y2="33.1215" gradientUnits="userSpaceOnUse">
<stop stop-color="#54C3F1"/>
<stop offset="0.1" stop-color="#54C3F1"/>
<stop offset="0.3" stop-color="#4BBAEB"/>
<stop offset="0.5" stop-color="#36A2DC"/>
<stop offset="0.9" stop-color="#127CC3"/>
<stop offset="1" stop-color="#0068B7"/>
</linearGradient>
</defs>
</svg>
