<svg xmlns="http://www.w3.org/2000/svg" width="27" height="33" fill="none" viewBox="0 0 27 33"><path fill="#000" d="M11.928 20.412h4.368l2.898 3.738c1.932-1.89 3.15-4.872 3.15-8.946 0-7.182-3.822-11.13-8.904-11.088-5.124-.042-8.904 3.906-8.904 11.088 0 7.224 3.78 11.13 8.904 11.172.924 0 1.848-.168 2.688-.42zM0 15.204C.042 5.712 5.712-.042 13.44 0c7.686-.042 13.356 5.712 13.356 15.204 0 5.502-1.89 9.702-4.914 12.306l3.99 5.25h-4.62l-2.52-3.318c-1.596.714-3.402 1.05-5.292 1.05C5.712 30.492.042 24.696 0 15.204"/></svg>