<svg xmlns="http://www.w3.org/2000/svg" width="28" height="28" fill="none" viewBox="0 0 28 28"><rect width="28" height="28" fill="#0871f3" rx="14"/><g clip-path="url(#a)"><path fill="#fff" d="m17.964 8.561-3.29-.016a.598.598 0 1 0-.004 1.196l3.023.013-8.62 8.62a.598.598 0 1 0 .846.845l8.645-8.645-.004 3.056a.595.595 0 0 0 .6.6.596.596 0 0 0 .6-.6l-.004-3.276a1.793 1.793 0 0 0-1.793-1.793"/></g><defs><clipPath id="a"><path fill="#fff" d="M4 14.146 14.146 4l10.147 10.146-10.147 10.146z"/></clipPath></defs></svg>