<svg width="24" height="24" viewBox="0 0 24 24" fill="none" xmlns="http://www.w3.org/2000/svg">
<path d="M12 0C18.6274 0 24 5.37258 24 12C24 18.6274 18.6274 24 12 24C5.37258 24 0 18.6274 0 12C0 5.37258 5.37258 0 12 0ZM18.9443 12.7227C18.6682 12.7227 18.4443 12.9466 18.4443 13.2227V17H6V13.2227C6 12.9465 5.77614 12.7227 5.5 12.7227C5.22386 12.7227 5 12.9465 5 13.2227V17.5C5 17.7761 5.22386 18 5.5 18H18.9443C19.2205 18 19.4443 17.7761 19.4443 17.5V13.2227C19.4443 12.9465 19.2205 12.7227 18.9443 12.7227ZM12.2227 6C11.9465 6 11.7227 6.19294 11.7227 6.43066V13.2695C11.7227 13.3276 11.7355 13.383 11.7598 13.4336L9.47949 11.6094C9.26391 11.4369 8.9489 11.472 8.77637 11.6875C8.60386 11.9031 8.63886 12.2181 8.85449 12.3906L11.9102 14.835C12.0927 14.9808 12.3517 14.9808 12.5342 14.835L15.5898 12.3906C15.8055 12.2181 15.8405 11.9031 15.668 11.6875C15.4955 11.4722 15.1814 11.4372 14.9658 11.6094L12.6826 13.4346C12.7073 13.3836 12.7227 13.3282 12.7227 13.2695V6.43066C12.7227 6.19307 12.4986 6.0002 12.2227 6ZM12.2227 13.8037L12.0615 13.6748C12.1121 13.6897 12.1662 13.7002 12.2227 13.7002C12.2789 13.7002 12.3323 13.6896 12.3828 13.6748L12.2227 13.8037ZM12.0615 13.6748C11.925 13.6348 11.8144 13.5477 11.7598 13.4336L12.0615 13.6748ZM12.6826 13.4346C12.6277 13.5479 12.5187 13.635 12.3828 13.6748L12.6826 13.4346Z" fill="#0871F3"/>
</svg>
