<svg width="44" height="42" viewBox="0 0 44 42" fill="none" xmlns="http://www.w3.org/2000/svg">
<g clip-path="url(#clip0_4531_20204)">
<path d="M24.2019 39.748C23.8255 39.748 23.562 39.4477 23.562 39.0724C23.562 38.6971 23.8631 38.3968 24.2019 38.3968C32.9341 38.3968 36.5098 31.5282 36.6604 31.2654C36.8109 30.9276 37.225 30.815 37.5261 30.9651C37.8648 31.1153 37.9778 31.5282 37.8272 31.8284C37.6766 32.1662 33.7622 39.7105 24.2019 39.7105V39.748Z" fill="#4A6AC6"/>
<path d="M26.2343 38.5846C26.2343 37.0832 24.9922 35.8446 23.4867 35.8446C21.9811 35.8446 20.739 37.0832 20.739 38.5846C20.739 40.0859 21.9811 41.3245 23.4867 41.3245C24.9922 41.3245 26.2343 40.0859 26.2343 38.5846Z" fill="#B0DDFF"/>
<path d="M23.4491 42C21.5671 42 20.0239 40.4612 20.0239 38.5845C20.0239 36.7078 21.5671 35.1689 23.4491 35.1689C25.331 35.1689 26.8742 36.7078 26.8742 38.5845C26.8742 40.4612 25.331 42 23.4491 42ZM23.4491 36.5202C22.2823 36.5202 21.3413 37.4585 21.3413 38.622C21.3413 39.7856 22.2823 40.7239 23.4491 40.7239C24.6159 40.7239 25.5569 39.7856 25.5569 38.622C25.5569 37.4585 24.6159 36.5202 23.4491 36.5202Z" fill="#4A6AC6"/>
<path d="M37.5261 20.756C37.1497 20.756 36.8863 20.4557 36.8863 20.0804V16.6648C36.8863 9.15814 30.7887 3.07771 23.2609 3.07771H20.7768C13.249 3.07771 7.15145 9.15814 7.15145 16.6648V20.0804C7.15145 20.4557 6.85034 20.756 6.51158 20.756C6.17283 20.756 5.87172 20.4557 5.87172 20.0804V16.6648C5.79644 8.445 12.4962 1.76404 20.7391 1.76404H23.2233C31.4662 1.76404 38.166 8.445 38.166 16.6648V20.0804C38.166 20.4557 37.8649 20.756 37.5261 20.756Z" fill="#4A6AC6"/>
<path d="M32.4825 7.58183C32.0684 7.58183 31.6544 7.43169 31.3533 7.16896C29.095 5.25475 26.1968 4.20381 23.2609 4.20381H20.7767C17.8033 4.20381 14.9427 5.25475 12.6844 7.16896C11.9316 7.80703 10.84 7.69443 10.2002 6.98129C9.56032 6.23062 9.67324 5.14215 10.3884 4.50408C13.2489 2.02687 16.9376 0.675659 20.7391 0.675659H23.2233C27.0248 0.675659 30.7134 2.02687 33.6116 4.50408C34.3644 5.14215 34.4397 6.23062 33.7998 6.98129C33.4611 7.39416 32.9718 7.58183 32.4448 7.58183H32.4825Z" fill="#B0DDFF"/>
<path d="M32.4825 8.21984C31.9179 8.21984 31.3533 8.03217 30.9016 7.65684C28.7562 5.85523 26.0462 4.84182 23.2233 4.84182H20.7391C17.9162 4.84182 15.2062 5.85523 13.0608 7.65684C12.6091 8.03217 12.0821 8.21984 11.4799 8.21984C10.8777 8.21984 10.0873 7.91957 9.63561 7.35657C8.76991 6.34316 8.88283 4.80429 9.89908 3.94102C12.9478 1.42627 16.787 0 20.7391 0H23.2233C27.1754 0 31.0146 1.42627 34.0633 3.97855C34.5526 4.39142 34.8537 4.99196 34.8914 5.63003C34.929 6.2681 34.7408 6.90617 34.3268 7.3941C33.8751 7.91957 33.1976 8.25737 32.4825 8.25737V8.21984ZM20.7391 3.52815H23.2233C26.3473 3.52815 29.3961 4.65416 31.7673 6.64343C32.219 7.01877 32.9342 6.98123 33.3105 6.53083C33.4987 6.30563 33.6117 6.00536 33.574 5.74263C33.574 5.44236 33.4235 5.17963 33.1976 4.99196C30.4123 2.62735 26.8743 1.35121 23.2233 1.35121H20.7391C17.0881 1.35121 13.5501 2.66488 10.7648 4.99196C10.3131 5.36729 10.2378 6.08043 10.6519 6.53083C11.0283 6.98123 11.781 7.01877 12.1951 6.64343C14.5663 4.61662 17.6151 3.52815 20.7391 3.52815Z" fill="#4A6AC6"/>
<path d="M4.10265 31.4155C1.84431 31.4155 0 29.5764 0 27.3244V20.9437C0 18.6917 1.84431 16.8525 4.10265 16.8525C6.36099 16.8525 8.2053 18.6917 8.2053 20.9437V27.3244C8.2053 29.5764 6.36099 31.4155 4.10265 31.4155ZM4.10265 18.2037C2.55945 18.2037 1.31737 19.4424 1.31737 20.9812V27.3619C1.31737 28.9008 2.55945 30.1394 4.10265 30.1394C5.64585 30.1394 6.88794 28.9008 6.88794 27.3619V20.9812C6.88794 19.4424 5.64585 18.2037 4.10265 18.2037Z" fill="#4A6AC6"/>
<path d="M9.07105 29.5014C9.07105 30.8526 7.97952 31.9411 6.62451 31.9411C5.26951 31.9411 4.17798 30.8526 4.17798 29.5014V18.7668C4.17798 17.4156 5.26951 16.3271 6.62451 16.3271C7.97952 16.3271 9.07105 17.4156 9.07105 18.7668V29.5014Z" fill="#B0DDFF"/>
<path d="M6.62448 32.6166C4.93073 32.6166 3.53809 31.2279 3.53809 29.5389V18.8043C3.53809 17.1153 4.93073 15.7266 6.62448 15.7266C8.31824 15.7266 9.71088 17.1153 9.71088 18.8043V29.5389C9.71088 31.2279 8.31824 32.6166 6.62448 32.6166ZM6.62448 17.0402C5.64587 17.0402 4.85545 17.8284 4.85545 18.8043V29.5389C4.85545 30.5148 5.64587 31.303 6.62448 31.303C7.6031 31.303 8.39352 30.5148 8.39352 29.5389V18.8043C8.39352 17.8284 7.6031 17.0402 6.62448 17.0402Z" fill="#4A6AC6"/>
<path d="M39.8975 31.4155C37.6391 31.4155 35.7948 29.5764 35.7948 27.3244V20.9437C35.7948 18.6917 37.6391 16.8525 39.8975 16.8525C42.1558 16.8525 44.0001 18.6917 44.0001 20.9437V27.3244C44.0001 29.5764 42.1558 31.4155 39.8975 31.4155ZM39.8975 18.2037C38.3543 18.2037 37.1122 19.4424 37.1122 20.9812V27.3619C37.1122 28.9008 38.3543 30.1394 39.8975 30.1394C41.4407 30.1394 42.6827 28.9008 42.6827 27.3619V20.9812C42.6827 19.4424 41.4407 18.2037 39.8975 18.2037Z" fill="#4A6AC6"/>
<path d="M34.9291 18.8043C34.9291 17.4531 36.0206 16.3646 37.3756 16.3646C38.7306 16.3646 39.8221 17.4531 39.8221 18.8043V29.5389C39.8221 30.8901 38.7306 31.9786 37.3756 31.9786C36.0206 31.9786 34.9291 30.8901 34.9291 29.5389V18.8043Z" fill="#B0DDFF"/>
<path d="M37.3756 32.6166C35.6818 32.6166 34.2892 31.2279 34.2892 29.5389V18.8043C34.2892 17.1153 35.6818 15.7266 37.3756 15.7266C39.0693 15.7266 40.462 17.1153 40.462 18.8043V29.5389C40.462 31.2279 39.0693 32.6166 37.3756 32.6166ZM37.3756 17.0402C36.397 17.0402 35.6065 17.8284 35.6065 18.8043V29.5389C35.6065 30.5148 36.397 31.303 37.3756 31.303C38.3542 31.303 39.1446 30.5148 39.1446 29.5389V18.8043C39.1446 17.8284 38.3542 17.0402 37.3756 17.0402Z" fill="#4A6AC6"/>
<path d="M31.5414 23.2708C31.5414 18.0161 27.2882 13.7748 22.0188 13.7748C16.7493 13.7748 12.4961 18.0161 12.4961 23.2708C12.4961 28.5255 16.7493 32.7667 22.0188 32.7667C27.2882 32.7667 31.5414 28.5255 31.5414 23.2708Z" fill="#B0DDFF"/>
<path d="M21.8306 21.5817C21.68 21.5817 21.4918 21.5066 21.3789 21.394L18.6689 18.6916L15.9589 21.394C15.6954 21.6568 15.2814 21.6568 15.0179 21.394C14.7544 21.1313 14.7544 20.7184 15.0179 20.4557L18.1796 17.3029C18.4431 17.0402 18.8571 17.0402 19.1206 17.3029L22.2822 20.4557C22.5457 20.7184 22.5457 21.1313 22.2822 21.394C22.0188 21.6568 21.9811 21.5817 21.8306 21.5817Z" fill="#4A6AC6"/>
<path d="M18.6689 29.8016C18.2925 29.8016 18.0291 29.5013 18.0291 29.126V18.504C18.0291 18.1286 18.3302 17.8284 18.6689 17.8284C19.0077 17.8284 19.3088 18.1286 19.3088 18.504V29.126C19.3088 29.5013 19.0077 29.8016 18.6689 29.8016Z" fill="#4A6AC6"/>
<path d="M25.331 29.8016C25.1428 29.8016 24.9922 29.7265 24.8793 29.6139L21.7176 26.4611C21.4542 26.1983 21.4542 25.7855 21.7176 25.5227C21.9811 25.26 22.3951 25.26 22.6586 25.5227L25.3686 28.2251L28.0786 25.5227C28.3421 25.26 28.7561 25.26 29.0196 25.5227C29.2831 25.7855 29.2831 26.1983 29.0196 26.4611L25.8579 29.6139C25.745 29.7265 25.5568 29.8016 25.4062 29.8016H25.331Z" fill="#4A6AC6"/>
<path d="M25.331 29.0134C24.9546 29.0134 24.6912 28.7131 24.6912 28.3377V17.7158C24.6912 17.3404 24.9923 17.0402 25.331 17.0402C25.6698 17.0402 25.9709 17.3404 25.9709 17.7158V28.3377C25.9709 28.7131 25.6698 29.0134 25.331 29.0134Z" fill="#4A6AC6"/>
</g>
<defs>
<clipPath id="clip0_4531_20204">
<rect width="44" height="42" fill="white"/>
</clipPath>
</defs>
</svg>
