<svg width="43" height="42" viewBox="0 0 43 42" fill="none" xmlns="http://www.w3.org/2000/svg">
<g clip-path="url(#clip0_4531_20264)">
<path d="M24.8289 42H18.1711C17.8033 42 17.5458 41.705 17.5458 41.3362V40.5987H0.625321C0.257485 40.5987 0 40.3037 0 39.935C0 39.5662 0.294269 39.2712 0.625321 39.2712H18.1711C18.5389 39.2712 18.7964 39.5662 18.7964 39.935V40.6725H24.1668V39.935C24.1668 39.5662 24.4611 39.2712 24.7921 39.2712H42.3379C42.7057 39.2712 42.9632 39.5662 42.9632 39.935C42.9632 40.3037 42.6689 40.5987 42.3379 40.5987H25.4542V41.3362C25.4542 41.705 25.16 42 24.8289 42Z" fill="#4A6AC6"/>
<path d="M40.3148 40.2669C39.947 40.2669 39.6895 39.9719 39.6895 39.6031V36.9851C36.9307 35.4363 33.6938 34.5882 30.2729 34.5882C26.852 34.5882 24.645 35.842 22.2541 36.9851H22.1437C21.9598 37.0957 21.7759 37.0957 21.592 37.0219H21.4816C19.0539 35.842 16.3319 34.5882 13.4628 34.5882C10.5937 34.5882 6.17964 35.5838 3.31052 37.4276V39.5663C3.31052 39.935 3.01625 40.23 2.6852 40.23C2.35414 40.23 2.05988 39.935 2.05988 39.5663V37.0588C2.05988 36.8376 2.17023 36.6532 2.35414 36.5057C5.48075 34.4039 9.45337 33.2607 13.4996 33.2607C17.5458 33.2607 19.4217 34.5145 21.923 35.6945C24.4243 34.5514 27.2566 33.2607 30.3464 33.2607C33.4363 33.2607 37.7032 34.2195 40.7194 35.9895C40.9033 36.1001 41.0505 36.3213 41.0505 36.5426V39.5294C41.0505 39.8981 40.7562 40.1931 40.4251 40.1931L40.3148 40.2669Z" fill="#4A6AC6"/>
<path d="M25.491 29.4995C25.491 31.0482 24.2404 32.302 22.6955 32.302H20.3045C18.7596 32.302 17.509 31.0482 17.509 29.4995" fill="#B0DDFF"/>
<path d="M22.6955 32.9289H20.3045C18.4286 32.9289 16.8837 31.3802 16.8837 29.4996C16.8837 27.619 17.1779 28.8358 17.509 28.8358C17.84 28.8358 18.1343 29.1308 18.1343 29.4996C18.1343 30.6795 19.0907 31.6383 20.2678 31.6383H22.6587C23.8358 31.6383 24.7921 30.6795 24.7921 29.4996C24.7921 28.3196 25.0864 28.8358 25.4542 28.8358C25.8221 28.8358 26.1163 29.1308 26.1163 29.4996C26.1163 31.3802 24.5714 32.9289 22.6955 32.9289Z" fill="#4A6AC6"/>
<path d="M27.2198 23.3047V29.4627H24.0197V23.3047" fill="#B0DDFF"/>
<path d="M29.6476 11.6523C29.6476 7.15363 26.006 3.46619 21.4816 3.46619C16.9572 3.46619 13.3157 7.11676 13.3157 11.6523C13.3157 16.1879 16.9572 19.8384 21.4816 19.8384C26.006 19.8384 29.6476 16.1879 29.6476 11.6523Z" fill="#B0DDFF"/>
<path d="M27.2198 23.9684C26.852 23.9684 26.5577 23.6734 26.5577 23.3047V21.0553C26.5577 20.8341 26.6681 20.6128 26.852 20.5022C29.9418 18.5847 31.8178 15.3029 31.8178 11.6523C31.8178 5.93679 27.1831 1.29061 21.4816 1.29061C15.7802 1.29061 11.1454 5.93679 11.1454 11.6523C11.1454 17.3679 12.9846 18.6216 16.1112 20.5022C16.2951 20.6128 16.4055 20.8341 16.4055 21.0553V23.3047C16.4055 23.6734 16.1112 23.9684 15.7802 23.9684C15.4491 23.9684 15.1548 23.6734 15.1548 23.3047V21.4241C11.8443 19.2485 9.89479 15.6348 9.89479 11.6523C9.858 5.23617 15.0813 0 21.4816 0C27.882 0 33.1052 5.23617 33.1052 11.6523C33.1052 18.0685 31.1557 19.2485 27.8452 21.4241V23.3047C27.8452 23.6734 27.5509 23.9684 27.1831 23.9684H27.2198Z" fill="#4A6AC6"/>
<path d="M27.2198 30.1264H15.7434C15.3755 30.1264 15.118 29.8314 15.118 29.4626V23.3046C15.118 22.9359 15.4123 22.6409 15.7434 22.6409H27.2198C27.5877 22.6409 27.8819 22.9359 27.8819 23.3046V29.4626C27.8819 29.8314 27.5877 30.1264 27.2198 30.1264ZM16.4055 28.8358H26.5945V23.9683H16.4055V28.8358Z" fill="#4A6AC6"/>
<path d="M28.9487 23.9683H14.0513C13.6835 23.9683 13.426 23.6734 13.426 23.3046C13.426 22.9359 13.7203 22.6409 14.0513 22.6409H28.9487C29.3165 22.6409 29.574 22.9359 29.574 23.3046C29.574 23.6734 29.2797 23.9683 28.9487 23.9683Z" fill="#4A6AC6"/>
<path d="M25.0129 25.8858H17.9872C17.6194 25.8858 17.3619 25.5908 17.3619 25.2221C17.3619 24.8533 17.6561 24.5583 17.9872 24.5583H25.0129C25.3807 24.5583 25.6382 24.8533 25.6382 25.2221C25.6382 25.5908 25.3439 25.8858 25.0129 25.8858Z" fill="#4A6AC6"/>
<path d="M25.0129 27.7296H17.9872C17.6194 27.7296 17.3619 27.4346 17.3619 27.0658C17.3619 26.6971 17.6561 26.4021 17.9872 26.4021H25.0129C25.3807 26.4021 25.6382 26.6971 25.6382 27.0658C25.6382 27.4346 25.3439 27.7296 25.0129 27.7296Z" fill="#4A6AC6"/>
<path d="M8.31309 12.3899H5.77502C5.40718 12.3899 5.11292 12.0949 5.11292 11.7261C5.11292 11.3574 5.40718 11.0624 5.77502 11.0624H8.31309C8.68092 11.0624 8.93841 11.3574 8.93841 11.7261C8.93841 12.0949 8.64414 12.3899 8.31309 12.3899Z" fill="#4A6AC6"/>
<path d="M37.225 12.3899H34.6869C34.3191 12.3899 34.0616 12.0949 34.0616 11.7261C34.0616 11.3574 34.3559 11.0624 34.6869 11.0624H37.225C37.5928 11.0624 37.8503 11.3574 37.8503 11.7261C37.8503 12.0949 37.556 12.3899 37.225 12.3899Z" fill="#4A6AC6"/>
<path d="M7.87171 20.2809C7.65101 20.2809 7.43031 20.1703 7.31996 19.9491C7.13604 19.6541 7.24639 19.2485 7.54066 19.0641L9.74767 17.7735C10.0419 17.5891 10.4466 17.6997 10.6305 17.9947C10.8144 18.2897 10.704 18.6953 10.4098 18.8797L8.20276 20.1703C8.09241 20.2441 7.98206 20.2441 7.87171 20.2441V20.2809Z" fill="#4A6AC6"/>
<path d="M32.9213 5.75239C32.7006 5.75239 32.4799 5.64176 32.3696 5.42052C32.1857 5.12552 32.296 4.7199 32.5903 4.53553L34.7973 3.24492C35.0916 3.06055 35.4962 3.17117 35.6801 3.46617C35.864 3.76116 35.7537 4.16678 35.4594 4.35116L33.2524 5.64176C33.142 5.71551 33.0317 5.71551 32.9213 5.71551V5.75239Z" fill="#4A6AC6"/>
<path d="M35.1283 20.2809C35.018 20.2809 34.9076 20.2809 34.7973 20.2072L32.5903 18.9166C32.296 18.7322 32.1857 18.3266 32.3696 18.0316C32.5535 17.7366 32.9581 17.626 33.2524 17.8104L35.4594 19.101C35.7537 19.2853 35.864 19.6909 35.6801 19.9859C35.5697 20.2072 35.349 20.3178 35.1283 20.3178V20.2809Z" fill="#4A6AC6"/>
<path d="M10.0787 5.75238C9.96837 5.75238 9.85802 5.75238 9.74767 5.67863L7.54066 4.38802C7.24639 4.20365 7.13604 3.79803 7.31996 3.50303C7.50387 3.20804 7.90849 3.09742 8.20276 3.28179L10.4098 4.57239C10.704 4.75677 10.8144 5.16238 10.6305 5.45738C10.5201 5.67863 10.2994 5.78925 10.0787 5.78925V5.75238Z" fill="#4A6AC6"/>
<path d="M21.4816 38.6076C21.1138 38.6076 20.8195 38.3126 20.8195 37.9439V32.6708C20.8195 32.3021 21.1138 32.0071 21.4816 32.0071C21.8495 32.0071 22.1437 32.3021 22.1437 32.6708V37.9439C22.1437 38.3126 21.8495 38.6076 21.4816 38.6076Z" fill="#4A6AC6"/>
<path d="M20.4885 15.4504C20.3046 15.4504 20.1574 15.3767 20.0471 15.266L16.8101 12.0211C16.5526 11.763 16.5526 11.3574 16.8101 11.0992C17.0676 10.8411 17.4722 10.8411 17.7297 11.0992L20.5253 13.9017L28.213 6.19493C28.4705 5.93681 28.8751 5.93681 29.1326 6.19493C29.3901 6.45305 29.3901 6.85867 29.1326 7.11679L20.9667 15.3029C20.8563 15.4135 20.6724 15.4873 20.5253 15.4873L20.4885 15.4504Z" fill="#4A6AC6"/>
</g>
<defs>
<clipPath id="clip0_4531_20264">
<rect width="43" height="42" fill="white"/>
</clipPath>
</defs>
</svg>
