<svg width="40" height="42" viewBox="0 0 40 42" fill="none" xmlns="http://www.w3.org/2000/svg">
<g clip-path="url(#clip0_4531_20240)">
<path d="M11.4996 9.37727H28.536V0.646729H0.603394V32.6228H11.4996V9.37727Z" fill="#B0DDFF"/>
<path d="M11.4996 33.2335H0.603372C0.248447 33.2335 0 32.9461 0 32.5868V0.646707C0 0.287425 0.28394 0 0.603372 0H28.5004C28.8554 0 29.1393 0.287425 29.1393 0.646707V9.37724C29.1393 9.73653 28.8554 10.024 28.5004 10.024H12.1029V32.6228C12.1029 32.982 11.819 33.2695 11.4996 33.2695V33.2335ZM1.24224 31.976H10.8607V9.37724C10.8607 9.01796 11.1446 8.73054 11.4641 8.73054H27.8616V1.25748H1.24224V31.976Z" fill="#B0DDFF"/>
<path d="M33.4694 42.0001H11.4996C11.1446 42.0001 10.8962 41.7126 10.8962 41.3533V9.3773C10.8962 9.01802 11.1801 8.73059 11.4996 8.73059H39.3966C39.7515 8.73059 40 9.01802 40 9.3773V35.3533C40 35.533 39.929 35.6767 39.8225 35.7845L33.8953 41.7845C33.7888 41.8923 33.6114 41.9641 33.4694 41.9641V42.0001ZM12.1029 40.7426H33.1854L38.7578 35.1018V9.98808H12.1029V40.7066V40.7426Z" fill="#4A6AC6"/>
<path d="M33.4694 41.3534L39.3966 35.3534H33.4694V41.3534Z" fill="#B0DDFF"/>
<path d="M33.4694 42C33.3984 42 33.2919 42 33.2209 41.9641C32.9725 41.8563 32.8305 41.6408 32.8305 41.3893V35.3893C32.8305 35.03 33.1144 34.7426 33.4339 34.7426H39.3611C39.6096 34.7426 39.8225 34.8863 39.929 35.1378C40.0355 35.3893 39.9645 35.6408 39.787 35.8204L33.8598 41.8204C33.7533 41.9282 33.5758 42 33.4339 42H33.4694ZM34.0727 36V39.8444L37.8704 36H34.0727Z" fill="#4A6AC6"/>
<path d="M2.4845 31.2575C2.34253 31.2575 2.16507 31.1857 2.05859 31.0779C1.81014 30.8264 1.81014 30.4312 2.05859 30.1797L5.21742 26.9821C5.46586 26.7306 5.85628 26.7306 6.10473 26.9821L9.26356 30.1797C9.51201 30.4312 9.51201 30.8264 9.26356 31.0779C9.01511 31.3294 8.62469 31.3294 8.37625 31.0779L5.67882 28.3474L2.98139 31.0779C2.87492 31.1857 2.69745 31.2575 2.55548 31.2575H2.4845Z" fill="#4A6AC6"/>
<path d="M14.8714 38.012H12.8838C8.62468 38.012 5.14642 34.4911 5.14642 30.1797V28.1677C5.14642 27.8084 5.43036 27.521 5.7498 27.521C6.06923 27.521 6.35317 27.8084 6.35317 28.1677V30.1797C6.35317 33.8084 9.26355 36.7545 12.8483 36.7545H14.8359C15.1908 36.7545 15.4392 37.042 15.4392 37.4012C15.4392 37.7605 15.1553 38.0479 14.8359 38.0479L14.8714 38.012Z" fill="#4A6AC6"/>
<path d="M33.3274 15.4851C33.1854 15.4851 33.008 15.4132 32.9015 15.3054L29.7427 12.1078C29.4942 11.8563 29.4942 11.4611 29.7427 11.2096C29.9911 10.9581 30.3815 10.9581 30.63 11.2096L33.3274 13.9402L36.0248 11.2096C36.2733 10.9581 36.6637 10.9581 36.9121 11.2096C37.1606 11.4611 37.1606 11.8563 36.9121 12.1078L33.7533 15.3054C33.6468 15.4132 33.4694 15.4851 33.3274 15.4851Z" fill="#4A6AC6"/>
<path d="M33.2209 14.7664C32.866 14.7664 32.6176 14.479 32.6176 14.1197V12.1078C32.6176 8.47902 29.7072 5.53291 26.1224 5.53291H24.1349C23.7799 5.53291 23.5315 5.24549 23.5315 4.88621C23.5315 4.52693 23.8154 4.2395 24.1349 4.2395H26.1224C30.3815 4.2395 33.8598 7.76046 33.8598 12.0718V14.0838C33.8598 14.4431 33.5759 14.7305 33.2564 14.7305L33.2209 14.7664Z" fill="#4A6AC6"/>
<path d="M25.5546 12.8623H14.4454V16.5629H25.5546V12.8623Z" fill="#B0DDFF"/>
<path d="M35.386 21.7365H15.2618C14.9068 21.7365 14.6584 21.4491 14.6584 21.0898C14.6584 20.7305 14.9423 20.4431 15.2618 20.4431H35.386C35.7409 20.4431 35.9894 20.7305 35.9894 21.0898C35.9894 21.4491 35.7054 21.7365 35.386 21.7365Z" fill="#4A6AC6"/>
<path d="M35.386 25.5809H15.2618C14.9068 25.5809 14.6584 25.2935 14.6584 24.9342C14.6584 24.5749 14.9423 24.2875 15.2618 24.2875H35.386C35.7409 24.2875 35.9894 24.5749 35.9894 24.9342C35.9894 25.2935 35.7054 25.5809 35.386 25.5809Z" fill="#4A6AC6"/>
<path d="M35.386 29.4251H15.2618C14.9068 29.4251 14.6584 29.1377 14.6584 28.7784C14.6584 28.4191 14.9423 28.1317 15.2618 28.1317H35.386C35.7409 28.1317 35.9894 28.4191 35.9894 28.7784C35.9894 29.1377 35.7054 29.4251 35.386 29.4251Z" fill="#4A6AC6"/>
<path d="M28.2875 33.2335H15.2618C14.9068 33.2335 14.6584 32.946 14.6584 32.5868C14.6584 32.2275 14.9423 31.9401 15.2618 31.9401H28.2875C28.6424 31.9401 28.8909 32.2275 28.8909 32.5868C28.8909 32.946 28.6069 33.2335 28.2875 33.2335Z" fill="#4A6AC6"/>
</g>
<defs>
<clipPath id="clip0_4531_20240">
<rect width="40" height="42" fill="white"/>
</clipPath>
</defs>
</svg>
