<svg width="44" height="42" viewBox="0 0 44 42" fill="none" xmlns="http://www.w3.org/2000/svg">
<g clip-path="url(#clip0_4531_20298)">
<path d="M24.2019 39.748C23.8255 39.748 23.562 39.4477 23.562 39.0724C23.562 38.6971 23.8631 38.3968 24.2019 38.3968C32.9341 38.3968 36.5098 31.5282 36.6604 31.2654C36.8109 30.9276 37.225 30.815 37.5261 30.9651C37.8648 31.1153 37.9778 31.5282 37.8272 31.8284C37.6766 32.1662 33.7622 39.7105 24.2019 39.7105V39.748Z" fill="#4A6AC6"/>
<path d="M26.2344 38.5846C26.2344 37.0832 24.9923 35.8446 23.4867 35.8446C21.9812 35.8446 20.7391 37.0832 20.7391 38.5846C20.7391 40.0859 21.9812 41.3245 23.4867 41.3245C24.9923 41.3245 26.2344 40.0859 26.2344 38.5846Z" fill="#B0DDFF"/>
<path d="M23.4491 42C21.5671 42 20.0239 40.4612 20.0239 38.5845C20.0239 36.7078 21.5671 35.1689 23.4491 35.1689C25.331 35.1689 26.8742 36.7078 26.8742 38.5845C26.8742 40.4612 25.331 42 23.4491 42ZM23.4491 36.5202C22.2823 36.5202 21.3413 37.4585 21.3413 38.622C21.3413 39.7856 22.2823 40.7239 23.4491 40.7239C24.6159 40.7239 25.5569 39.7856 25.5569 38.622C25.5569 37.4585 24.6159 36.5202 23.4491 36.5202Z" fill="#4A6AC6"/>
<path d="M37.5261 20.756C37.1497 20.756 36.8862 20.4557 36.8862 20.0804V16.6648C36.8862 9.15814 30.7887 3.07771 23.2609 3.07771H20.7767C13.2489 3.07771 7.15139 9.15814 7.15139 16.6648V20.0804C7.15139 20.4557 6.85027 20.756 6.51152 20.756C6.17277 20.756 5.87166 20.4557 5.87166 20.0804V16.6648C5.79638 8.445 12.4961 1.76404 20.7391 1.76404H23.2232C31.4662 1.76404 38.1659 8.445 38.1659 16.6648V20.0804C38.1659 20.4557 37.8648 20.756 37.5261 20.756Z" fill="#4A6AC6"/>
<path d="M32.4824 7.58183C32.0684 7.58183 31.6544 7.43169 31.3532 7.16896C29.0949 5.25475 26.1967 4.20381 23.2609 4.20381H20.7767C17.8032 4.20381 14.9426 5.25475 12.6843 7.16896C11.9315 7.80703 10.84 7.69443 10.2001 6.98129C9.56026 6.23062 9.67318 5.14215 10.3883 4.50408C13.2489 2.02687 16.9375 0.675659 20.739 0.675659H23.2232C27.0248 0.675659 30.7134 2.02687 33.6116 4.50408C34.3644 5.14215 34.4396 6.23062 33.7998 6.98129C33.461 7.39416 32.9717 7.58183 32.4448 7.58183H32.4824Z" fill="#B0DDFF"/>
<path d="M32.4824 8.21984C31.9178 8.21984 31.3533 8.03217 30.9016 7.65684C28.7562 5.85523 26.0462 4.84182 23.2232 4.84182H20.7391C17.9161 4.84182 15.2061 5.85523 13.0607 7.65684C12.609 8.03217 12.0821 8.21984 11.4799 8.21984C10.8776 8.21984 10.0872 7.91957 9.63555 7.35657C8.76985 6.34316 8.88277 4.80429 9.89902 3.94102C12.9478 1.42627 16.787 0 20.7391 0H23.2232C27.1753 0 31.0145 1.42627 34.0633 3.97855C34.5526 4.39142 34.8537 4.99196 34.8913 5.63003C34.929 6.2681 34.7408 6.90617 34.3267 7.3941C33.8751 7.91957 33.1976 8.25737 32.4824 8.25737V8.21984ZM20.7391 3.52815H23.2232C26.3473 3.52815 29.396 4.65416 31.7673 6.64343C32.219 7.01877 32.9341 6.98123 33.3105 6.53083C33.4987 6.30563 33.6116 6.00536 33.574 5.74263C33.574 5.44236 33.4234 5.17963 33.1976 4.99196C30.4123 2.62735 26.8742 1.35121 23.2232 1.35121H20.7391C17.0881 1.35121 13.55 2.66488 10.7647 4.99196C10.313 5.36729 10.2378 6.08043 10.6518 6.53083C11.0282 6.98123 11.781 7.01877 12.195 6.64343C14.5663 4.61662 17.615 3.52815 20.7391 3.52815Z" fill="#4A6AC6"/>
<path d="M4.10265 31.4155C1.84431 31.4155 0 29.5764 0 27.3244V20.9437C0 18.6917 1.84431 16.8525 4.10265 16.8525C6.36099 16.8525 8.2053 18.6917 8.2053 20.9437V27.3244C8.2053 29.5764 6.36099 31.4155 4.10265 31.4155ZM4.10265 18.2037C2.55945 18.2037 1.31737 19.4424 1.31737 20.9812V27.3619C1.31737 28.9008 2.55945 30.1394 4.10265 30.1394C5.64585 30.1394 6.88794 28.9008 6.88794 27.3619V20.9812C6.88794 19.4424 5.64585 18.2037 4.10265 18.2037Z" fill="#4A6AC6"/>
<path d="M9.07105 29.5014C9.07105 30.8526 7.97952 31.9411 6.62451 31.9411C5.26951 31.9411 4.17798 30.8526 4.17798 29.5014V18.7668C4.17798 17.4156 5.26951 16.3271 6.62451 16.3271C7.97952 16.3271 9.07105 17.4156 9.07105 18.7668V29.5014Z" fill="#B0DDFF"/>
<path d="M6.62448 32.6166C4.93073 32.6166 3.53809 31.2279 3.53809 29.5389V18.8043C3.53809 17.1153 4.93073 15.7266 6.62448 15.7266C8.31824 15.7266 9.71088 17.1153 9.71088 18.8043V29.5389C9.71088 31.2279 8.31824 32.6166 6.62448 32.6166ZM6.62448 17.0402C5.64587 17.0402 4.85545 17.8284 4.85545 18.8043V29.5389C4.85545 30.5148 5.64587 31.303 6.62448 31.303C7.6031 31.303 8.39352 30.5148 8.39352 29.5389V18.8043C8.39352 17.8284 7.6031 17.0402 6.62448 17.0402Z" fill="#4A6AC6"/>
<path d="M39.8973 31.4155C37.639 31.4155 35.7947 29.5764 35.7947 27.3244V20.9437C35.7947 18.6917 37.639 16.8525 39.8973 16.8525C42.1557 16.8525 44 18.6917 44 20.9437V27.3244C44 29.5764 42.1557 31.4155 39.8973 31.4155ZM39.8973 18.2037C38.3541 18.2037 37.112 19.4424 37.112 20.9812V27.3619C37.112 28.9008 38.3541 30.1394 39.8973 30.1394C41.4405 30.1394 42.6826 28.9008 42.6826 27.3619V20.9812C42.6826 19.4424 41.4405 18.2037 39.8973 18.2037Z" fill="#4A6AC6"/>
<path d="M34.929 18.8043C34.929 17.4531 36.0205 16.3646 37.3756 16.3646C38.7306 16.3646 39.8221 17.4531 39.8221 18.8043V29.5389C39.8221 30.8901 38.7306 31.9786 37.3756 31.9786C36.0205 31.9786 34.929 30.8901 34.929 29.5389V18.8043Z" fill="#B0DDFF"/>
<path d="M37.3755 32.6166C35.6818 32.6166 34.2891 31.2279 34.2891 29.5389V18.8043C34.2891 17.1153 35.6818 15.7266 37.3755 15.7266C39.0693 15.7266 40.4619 17.1153 40.4619 18.8043V29.5389C40.4619 31.2279 39.0693 32.6166 37.3755 32.6166ZM37.3755 17.0402C36.3969 17.0402 35.6065 17.8284 35.6065 18.8043V29.5389C35.6065 30.5148 36.3969 31.303 37.3755 31.303C38.3541 31.303 39.1446 30.5148 39.1446 29.5389V18.8043C39.1446 17.8284 38.3541 17.0402 37.3755 17.0402Z" fill="#4A6AC6"/>
<path d="M31.5415 23.2708C31.5415 18.0161 27.2883 13.7748 22.0188 13.7748C16.7494 13.7748 12.4962 18.0161 12.4962 23.2708C12.4962 28.5255 16.7494 32.7667 22.0188 32.7667C27.2883 32.7667 31.5415 28.5255 31.5415 23.2708Z" fill="#B0DDFF"/>
<path d="M21.8306 21.5817C21.6801 21.5817 21.4919 21.5066 21.379 21.394L18.669 18.6916L15.959 21.394C15.6955 21.6568 15.2815 21.6568 15.018 21.394C14.7545 21.1313 14.7545 20.7184 15.018 20.4557L18.1797 17.3029C18.4431 17.0402 18.8572 17.0402 19.1206 17.3029L22.2823 20.4557C22.5458 20.7184 22.5458 21.1313 22.2823 21.394C22.0188 21.6568 21.9812 21.5817 21.8306 21.5817Z" fill="#4A6AC6"/>
<path d="M18.669 29.8016C18.2926 29.8016 18.0291 29.5013 18.0291 29.126V18.504C18.0291 18.1286 18.3302 17.8284 18.669 17.8284C19.0077 17.8284 19.3088 18.1286 19.3088 18.504V29.126C19.3088 29.5013 19.0077 29.8016 18.669 29.8016Z" fill="#4A6AC6"/>
<path d="M25.3311 29.8016C25.1429 29.8016 24.9923 29.7265 24.8794 29.6139L21.7177 26.4611C21.4543 26.1983 21.4543 25.7855 21.7177 25.5227C21.9812 25.26 22.3952 25.26 22.6587 25.5227L25.3687 28.2251L28.0787 25.5227C28.3422 25.26 28.7562 25.26 29.0197 25.5227C29.2832 25.7855 29.2832 26.1983 29.0197 26.4611L25.858 29.6139C25.7451 29.7265 25.5569 29.8016 25.4064 29.8016H25.3311Z" fill="#4A6AC6"/>
<path d="M25.3311 29.0134C24.9547 29.0134 24.6912 28.7131 24.6912 28.3377V17.7158C24.6912 17.3404 24.9923 17.0402 25.3311 17.0402C25.6698 17.0402 25.9709 17.3404 25.9709 17.7158V28.3377C25.9709 28.7131 25.6698 29.0134 25.3311 29.0134Z" fill="#4A6AC6"/>
</g>
<defs>
<clipPath id="clip0_4531_20298">
<rect width="44" height="42" fill="white"/>
</clipPath>
</defs>
</svg>
