<svg xmlns="http://www.w3.org/2000/svg" width="24" height="24" viewBox="0 0 24 24">
  <g id="그룹_39833" data-name="그룹 39833" transform="translate(-790 -537)">
    <rect id="사각형_18684" data-name="사각형 18684" width="24" height="24" transform="translate(790 537)" fill="none"/>
    <path id="ic_event_note_24px" d="M15.444,9.1H6.556v1.8h8.889Zm1.778-6.3h-.889V1H14.556V2.8H7.444V1H5.667V2.8H4.778A1.781,1.781,0,0,0,3.009,4.6L3,17.2A1.789,1.789,0,0,0,4.778,19H17.222A1.794,1.794,0,0,0,19,17.2V4.6A1.794,1.794,0,0,0,17.222,2.8Zm0,14.4H4.778V7.3H17.222Zm-4.444-4.5H6.556v1.8h6.222Z" transform="translate(791 539)" fill="#707070"/>
  </g>
</svg>
