<svg xmlns="http://www.w3.org/2000/svg" data-name="layer" viewBox="0 0 42 42"><path d="M21 0c11.6 0 21 9.4 21 21s-9.4 21-21 21S0 32.6 0 21 9.4 0 21 0Zm2.12 21.5 6.16 6.16c.6.57.63 1.52.07 2.12a1.5 1.5 0 0 1-2.12.07l-.07-.07L21 23.62l-6.16 6.16a1.5 1.5 0 0 1-2.2-2.04l.07-.07 6.16-6.16-6.16-6.16a1.51 1.51 0 0 1-.07-2.12 1.5 1.5 0 0 1 2.12-.07c.03.02.05.05.07.07l6.16 6.16 6.16-6.16a1.5 1.5 0 0 1 2.2 2.04l-.07.07-6.16 6.16Z" data-name="ico_input-delete" style="fill:#b3b3b3;fill-rule:evenodd;isolation:isolate"/></svg>