<svg xmlns="http://www.w3.org/2000/svg" width="19.049" height="20.704"><path fill="#ddd" stroke="#ddd" stroke-miterlimit="10" stroke-width="1.5" d="M3.951 19.954a3.208 3.208 0 0 1-3.2-3.2V7.998a1.605 1.605 0 0 1 .623-1.272l7.157-5.571a1.615 1.615 0 0 1 1.98 0l7.164 5.571a1.622 1.622 0 0 1 .624 1.272v8.754a3.208 3.208 0 0 1-3.209 3.2Z"/><path fill="#fff" d="M7.943 11.585h3.156a1.076 1.076 0 0 1 1.074 1.074v3.687a1.075 1.075 0 0 1-1.074 1.074H7.943a1.075 1.075 0 0 1-1.07-1.074v-3.687a1.075 1.075 0 0 1 1.074-1.074"/></svg>