<svg xmlns="http://www.w3.org/2000/svg" width="12.211" height="13.456"><path fill="#454545" fill-rule="evenodd" d="m8 1.53-6.053 5.8a.5.5 0 0 1-.04.042 2.884 2.884 0 0 0 0 4.2 3.245 3.245 0 0 0 4.449 0l4.627-4.441a.5.5 0 1 1 .692.721L7.042 12.3a4.245 4.245 0 0 1-5.822 0 3.884 3.884 0 0 1-.034-5.621.507.507 0 0 1 .036-.038L7.311.8a2.949 2.949 0 0 1 4.046 0M8 1.53a1.949 1.949 0 0 1 2.673 0 1.714 1.714 0 0 1 0 2.5L4.6 9.851l-.024.021a.791.791 0 0 1-1.085 0 .665.665 0 0 1 0-.97l5.438-5.217a.5.5 0 1 0-.692-.722L2.8 8.176a1.666 1.666 0 0 0 0 2.425 1.791 1.791 0 0 0 2.44.014l.03-.027 6.083-5.833a2.714 2.714 0 0 0 0-3.951"/></svg>