<svg xmlns="http://www.w3.org/2000/svg" width="20.801" height="20.8"><g fill="#2392ff" fill-rule="evenodd"><path d="M10.411 1.6A8.806 8.806 0 0 0 1.6 10.4a8.789 8.789 0 0 0 8.79 8.8 8.791 8.791 0 0 0 8.808-8.79v-.883a.8.8 0 1 1 1.6 0v.883A10.4 10.4 0 0 1 0 10.4h.8H0A10.392 10.392 0 0 1 14.635.905a.8.8 0 1 1-.655 1.46 8.742 8.742 0 0 0-3.569-.765Zm-.02 19.2Z"/><path d="M20.567 2.164a.8.8 0 0 1 0 1.131l-9.6 9.61a.8.8 0 0 1-1.132 0l-2.88-2.88a.8.8 0 0 1 1.131-1.131l2.314 2.314 9.034-9.043a.8.8 0 0 1 1.133-.001Z"/></g></svg>