<svg xmlns="http://www.w3.org/2000/svg" width="22" height="22" fill="none"><g clip-path="url(#a)"><path fill="#0072BC" stroke="#0072BC" stroke-miterlimit="10" stroke-width="1.5" d="M5.82 21.163a3.208 3.208 0 0 1-3.201-3.202V9.207a1.605 1.605 0 0 1 .623-1.272L10.4 2.364a1.615 1.615 0 0 1 1.98 0l7.164 5.571a1.622 1.622 0 0 1 .624 1.272v8.754a3.208 3.208 0 0 1-3.209 3.202H5.82Z"/><path fill="#fff" d="M9.812 12.794h3.156a1.076 1.076 0 0 1 1.074 1.074v3.687a1.075 1.075 0 0 1-1.074 1.074H9.812a1.075 1.075 0 0 1-1.07-1.074v-3.687a1.075 1.075 0 0 1 1.074-1.074"/></g><defs><clipPath id="a"><path fill="#fff" d="M0 0h22v22H0z"/></clipPath></defs></svg>