<svg width="40" height="39" viewBox="0 0 40 39" fill="none" xmlns="http://www.w3.org/2000/svg">
<g clip-path="url(#clip0_3877_20041)">
<path d="M14.9193 1.17761C20.8413 8.14262 28.6609 8.24356 28.6609 8.24356V19.6837C28.6609 22.4226 27.8466 25.0874 26.3258 27.2611C24.1656 30.3432 14.9193 34.6366 14.9193 34.6366C14.9193 34.6366 5.67302 30.3499 3.51286 27.2611C1.992 25.0874 1.17773 22.4226 1.17773 19.6837V8.24356C1.17773 8.24356 8.99738 8.13589 14.9193 1.17761Z" fill="white" stroke="#727272" stroke-width="2.35532" stroke-linecap="round" stroke-linejoin="round"/>
<path d="M31.0358 37.8388C37.1568 36.5333 41.0606 30.5129 39.755 24.3918C38.4495 18.2708 32.4291 14.367 26.308 15.6726C20.1869 16.9781 16.2832 22.9985 17.5887 29.1196C18.8943 35.2406 24.9147 39.1444 31.0358 37.8388Z" fill="#0871F3"/>
<path d="M34.6231 26.7562H22.7119" stroke="white" stroke-width="2.35532" stroke-linecap="round" stroke-linejoin="round"/>
<path d="M28.6677 20.8006V32.7118" stroke="white" stroke-width="2.35532" stroke-linecap="round" stroke-linejoin="round"/>
</g>
<defs>
<clipPath id="clip0_3877_20041">
<rect width="40" height="38.0888" fill="white"/>
</clipPath>
</defs>
</svg>
