<svg width="33" height="38" viewBox="0 0 33 38" fill="none" xmlns="http://www.w3.org/2000/svg">
<g clip-path="url(#clip0_3868_667)">
<path d="M27.2598 10.6942H5.69079C3.21866 10.6942 1.2146 12.6982 1.2146 15.1703V31.9092C1.2146 34.3813 3.21866 36.3854 5.69079 36.3854H27.2598C29.7319 36.3854 31.736 34.3813 31.736 31.9092V15.1703C31.736 12.6982 29.7319 10.6942 27.2598 10.6942Z" stroke="white" stroke-width="2.42894" stroke-linecap="round" stroke-linejoin="round"/>
<path d="M20.2575 21.2221C20.2575 19.1332 18.5642 17.433 16.4683 17.433C14.3725 17.433 12.6792 19.1263 12.6792 21.2221C12.6792 22.8946 13.7688 24.2895 15.2678 24.7961V29.6332H17.6689V24.7961C19.1679 24.2895 20.2575 22.8946 20.2575 21.2221Z" fill="white"/>
<path d="M8.3072 10.6941C8.29332 10.4998 8.05737 6.57184 10.7084 3.61548C12.138 2.01931 14.0742 1.21429 16.4754 1.21429C18.8766 1.21429 20.8128 2.01931 22.2424 3.61548C24.8934 6.57184 24.6505 10.4998 24.6436 10.6941" stroke="white" stroke-width="2.42894" stroke-linecap="round" stroke-linejoin="round"/>
</g>
<defs>
<clipPath id="clip0_3868_667">
<rect width="32.9503" height="37.6" fill="white"/>
</clipPath>
</defs>
</svg>
