<svg width="82" height="82" viewBox="0 0 82 82" fill="none" xmlns="http://www.w3.org/2000/svg">
<mask id="mask0_7201_18867" style="mask-type:alpha" maskUnits="userSpaceOnUse" x="0" y="0" width="82" height="82">
<rect width="82" height="82" fill="#D9D9D9"/>
</mask>
<g mask="url(#mask0_7201_18867)">
</g>
<g clip-path="url(#clip0_7201_18867)">
<path d="M43.3434 0H15.3179C9.94578 0 5.59082 4.36062 5.59082 9.73971V72.2603C5.59082 77.6394 9.94578 82 15.3179 82H43.3434C48.7155 82 53.0705 77.6394 53.0705 72.2603V9.73971C53.0705 4.36062 48.7155 0 43.3434 0Z" fill="#EAEAF4"/>
<path d="M35.3818 6.461H27.9019C27.1395 6.461 26.5215 7.07983 26.5215 7.8432V7.87535C26.5215 8.63872 27.1395 9.25755 27.9019 9.25755H35.3818C36.1442 9.25755 36.7622 8.63872 36.7622 7.87535V7.8432C36.7622 7.07983 36.1442 6.461 35.3818 6.461Z" fill="#C1C3CF"/>
<path d="M23.2788 9.25757C24.0412 9.25757 24.6593 8.63874 24.6593 7.87537C24.6593 7.112 24.0412 6.49316 23.2788 6.49316C22.5165 6.49316 21.8984 7.112 21.8984 7.87537C21.8984 8.63874 22.5165 9.25757 23.2788 9.25757Z" fill="#C1C3CF"/>
<path d="M72.8773 21.1509L54.0652 15.5257C53.1984 15.2685 52.2354 15.2685 51.3686 15.5257L32.5565 21.1509C30.6625 21.7295 29.3141 23.401 29.1857 25.3618C28.5758 34.2979 29.0252 58.6633 51.176 66.4101C52.1711 66.7636 53.2626 66.7636 54.2257 66.4101C76.3765 58.6954 76.8259 34.2979 76.2159 25.3618C76.0875 23.401 74.7392 21.6974 72.8452 21.1509H72.8773Z" fill="#5ABCFF"/>
<path d="M68.864 24.7832L53.8401 20.1866C53.1338 19.9616 52.3954 19.9616 51.6892 20.1866L36.6652 24.7832C35.1564 25.2332 34.0649 26.6154 33.9686 28.2226C33.4871 35.5194 33.8402 55.4167 51.5608 61.7491C52.3633 62.0384 53.2301 62.0384 54.0006 61.7491C71.7212 55.4488 72.0743 35.5194 71.5928 28.2226C71.4964 26.6154 70.405 25.2332 68.8961 24.7832H68.864Z" fill="#1A8DFF"/>
<path d="M51.2399 45.0662L46.4887 40.3089C45.9751 39.7946 45.9751 38.9267 46.4887 38.4124C47.0024 37.8981 47.8692 37.8981 48.3828 38.4124L51.2399 41.2732C51.7536 41.7875 52.6203 41.7875 53.134 41.2732L59.1692 35.2301C59.6829 34.7158 60.5497 34.7158 61.0633 35.2301C61.5769 35.7444 61.5769 36.6123 61.0633 37.1266L53.134 45.0662C52.6203 45.5805 51.7536 45.5805 51.2399 45.0662Z" fill="white"/>
</g>
<defs>
<clipPath id="clip0_7201_18867">
<rect width="70.8182" height="82" fill="white" transform="translate(5.59082)"/>
</clipPath>
</defs>
</svg>
